Coordinates
version=1
nRows=49
nColumns=12
inDegrees=yes

Units are S.I. units (second, meters, Newtons, ...)
Angles are in degrees

endheader
time	SC_y	SC_z	SC_x	AC_y	AC_z	AC_x	GH_y	GH_z	GH_yy	EL_x	PS_y
       0.0              -32.15          22.77          6.695          31.12          4.539          8.222         -84.51          6.037          6.784          130.3          40.02
   0.02829              -32.15          22.77          6.696          31.12          4.538           8.22         -84.51          6.048           6.79          130.3          40.02
   0.05659              -32.15          22.77          6.697          31.13          4.537          8.217          -84.5           6.06          6.795          130.3          40.02
   0.08488              -32.15          22.76          6.698          31.13          4.536          8.214          -84.5          6.073          6.801          130.3          40.03
    0.1132              -32.15          22.76          6.698          31.13          4.535          8.211         -84.49          6.086          6.807          130.3          40.03
    0.1415              -32.15          22.76          6.699          31.14          4.533          8.208         -84.49            6.1          6.814          130.3          40.04
    0.1698              -32.15          22.76            6.7          31.14          4.532          8.205         -84.48          6.115          6.821          130.3          40.04
    0.1981              -32.14          22.75          6.702          31.15           4.53          8.201         -84.47          6.132          6.829          130.3          40.05
    0.2264              -32.14          22.75          6.703          31.15          4.529          8.197         -84.47          6.149          6.837          130.3          40.05
    0.2547              -32.14          22.75          6.704          31.16          4.527          8.193         -84.46          6.168          6.846          130.3          40.06
    0.2829              -32.14          22.74          6.705          31.16          4.525          8.189         -84.45          6.188          6.855          130.3          40.07
    0.3112              -32.14          22.74          6.707          31.17          4.523          8.184         -84.44          6.209          6.865          130.3          40.08
    0.3395              -32.13          22.74          6.708          31.17          4.521          8.179         -84.43          6.232          6.876          130.3          40.08
    0.3678              -32.13          22.73           6.71          31.18          4.518          8.173         -84.42          6.257          6.888          130.3          40.09
    0.3961              -32.13          22.73          6.712          31.19          4.516          8.167         -84.41          6.284          6.901          130.2           40.1
    0.4244              -32.12          22.72          6.714           31.2          4.513          8.161          -84.4          6.314          6.915          130.2          40.11
    0.4527              -32.12          22.71          6.716          31.21           4.51          8.154         -84.38          6.346           6.93          130.2          40.12
     0.481              -32.12          22.71          6.718          31.21          4.507          8.146         -84.37          6.381          6.946          130.2          40.14
    0.5093              -32.11           22.7          6.721          31.22          4.503          8.137         -84.35          6.419          6.964          130.2          40.15
    0.5376              -32.11          22.69          6.723          31.24          4.499          8.128         -84.34           6.46          6.984          130.2          40.16
    0.5659               -32.1          22.69          6.726          31.25          4.495          8.118         -84.32          6.506          7.005          130.2          40.18
    0.5942               -32.1          22.68           6.73          31.26           4.49          8.107          -84.3          6.556          7.029          130.2           40.2
    0.6225              -32.09          22.67          6.733          31.28          4.485          8.095         -84.27          6.612          7.055          130.2          40.22
    0.6508              -32.08          22.66          6.737          31.29          4.479          8.081         -84.25          6.673          7.084          130.2          40.24
    0.6791              -32.08          22.64          6.742          31.31          4.472          8.066         -84.22          6.742          7.117          130.2          40.26
    0.7074              -32.07          22.63          6.747          31.33          4.465          8.049         -84.19          6.818          7.153          130.2          40.29
    0.7357              -32.06          22.62          6.753          31.36          4.457           8.03         -84.15          6.903          7.193          130.1          40.32
     0.764              -32.05           22.6          6.759          31.38          4.448          8.008         -84.11            7.0          7.238          130.1          40.36
    0.7923              -32.04          22.58          6.766          31.41          4.438          7.984         -84.07          7.108           7.29          130.1          40.39
    0.8205              -32.02          22.56          6.775          31.45          4.426          7.957         -84.01          7.232          7.348          130.1          40.44
    0.8488              -32.01          22.53          6.784          31.48          4.413          7.926         -83.95          7.373          7.414          130.1          40.49
    0.8771              -31.99           22.5          6.795          31.53          4.398           7.89         -83.89          7.534          7.491          130.0          40.54
    0.9054              -31.97          22.47          6.807          31.58           4.38          7.848         -83.81          7.721          7.579          130.0          40.61
    0.9337              -31.94          22.43          6.821          31.64          4.359            7.8         -83.72          7.938          7.681          130.0          40.69
     0.962              -31.91          22.39          6.838          31.71          4.335          7.744         -83.61          8.192          7.801          129.9          40.78
    0.9903              -31.88          22.33          6.858          31.79          4.307          7.678         -83.49          8.491          7.942          129.9          40.88
     1.019              -31.84          22.27          6.882          31.88          4.273          7.599         -83.34          8.846          8.109          129.8          41.01
     1.047              -31.79          22.19           6.91           32.0          4.233          7.504         -83.16          9.272           8.31          129.7          41.16
     1.075              -31.74           22.1          6.944          32.14          4.184           7.39         -82.94          9.788          8.554          129.6          41.34
     1.103              -31.67          21.99          6.986          32.31          4.125           7.25         -82.68          10.42          8.851          129.5          41.56
     1.132              -31.58          21.85          7.038          32.52          4.051          7.077         -82.35          11.19          9.217          129.4          41.84
      1.16              -31.47          21.68          7.102          32.78           3.96          6.862         -81.95          12.16          9.674          129.2          42.18
     1.188              -31.34          21.46          7.183          33.11          3.844          6.591         -81.44          13.38          10.25          129.0          42.61
     1.217              -31.16          21.19          7.286          33.54          3.697          6.247         -80.79          14.94          10.98          128.7          43.16
     1.245              -30.94          20.83          7.418          34.07          3.509          5.806         -79.95          16.92          11.92          128.4          43.86
     1.273              -30.66          20.38          7.587          34.77          3.268           5.24         -78.89          19.47          13.12          127.9          44.77
     1.302               -30.3           19.8          7.803          35.65           2.96          4.518         -77.52          22.73          14.66          127.3          45.92
      1.33              -29.84          19.07          8.075          36.76          2.573          3.609         -75.81          26.82          16.59          126.6          47.37
     1.358              -29.28          18.19          8.406          38.11          2.101          2.501         -73.72          31.81          18.94          125.7          49.13
